<?xml version="1.0" encoding="utf-8"?>
<!-- Generator: Adobe Illustrator 22.0.1, SVG Export Plug-In . SVG Version: 6.00 Build 0)  -->
<svg version="1.1" id="Слой_1" xmlns="http://www.w3.org/2000/svg" xmlns:xlink="http://www.w3.org/1999/xlink" x="0px" y="0px"
	 viewBox="0 0 32 32" style="enable-background:new 0 0 32 32;" xml:space="preserve">
<style type="text/css">
	.st0{fill:#FFFFFF;}
</style>
<title>behance</title>
<path class="st0" d="M9.3,6.4c0.9,0,1.8,0.1,2.6,0.3c0.8,0.2,1.4,0.4,2,0.8c0.6,0.4,1,0.9,1.3,1.5c0.3,0.6,0.4,1.4,0.4,2.3
	c0,1-0.2,1.8-0.7,2.5c-0.5,0.7-1.1,1.2-2,1.6c1.2,0.4,2.1,1,2.7,1.8c0.6,0.9,0.9,1.9,0.9,3.2c0,1-0.2,1.9-0.6,2.6
	c-0.4,0.7-0.9,1.3-1.6,1.8c-0.6,0.5-1.4,0.8-2.2,1c-0.8,0.2-1.7,0.3-2.6,0.3H0V6.4C0,6.4,9.3,6.4,9.3,6.4z M8.7,14.4
	c0.8,0,1.4-0.2,1.9-0.6c0.5-0.4,0.7-1,0.7-1.8c0-0.5-0.1-0.8-0.2-1.1c-0.2-0.3-0.4-0.5-0.7-0.7c-0.3-0.2-0.6-0.3-1-0.3
	C9.1,9.8,8.8,9.8,8.4,9.8H4.3v4.6C4.3,14.4,8.7,14.4,8.7,14.4z M9,22.7c0.4,0,0.8,0,1.2-0.1c0.4-0.1,0.7-0.2,1-0.4
	c0.3-0.2,0.5-0.5,0.7-0.8c0.2-0.3,0.3-0.8,0.3-1.3c0-1-0.3-1.7-0.9-2.2c-0.6-0.4-1.3-0.6-2.3-0.6H4.3v5.4L9,22.7L9,22.7z"/>
<path class="st0" d="M22.7,22.7c0.6,0.6,1.4,0.9,2.5,0.9c0.8,0,1.5-0.2,2-0.6s0.9-0.8,1-1.3h3.5c-0.6,1.7-1.4,2.9-2.5,3.7
	c-1.1,0.7-2.5,1.1-4.1,1.1c-1.1,0-2.1-0.2-3-0.5c-0.9-0.4-1.7-0.9-2.3-1.5c-0.6-0.7-1.1-1.5-1.5-2.4c-0.3-0.9-0.5-1.9-0.5-3
	c0-1.1,0.2-2.1,0.5-3c0.4-0.9,0.8-1.7,1.5-2.4s1.4-1.2,2.3-1.6c0.9-0.4,1.9-0.6,3-0.6c1.2,0,2.3,0.2,3.2,0.7
	c0.9,0.5,1.6,1.1,2.2,1.9s1,1.7,1.3,2.7c0.3,1,0.3,2.1,0.3,3.2H21.7C21.7,21,22.1,22.1,22.7,22.7L22.7,22.7z M27.2,15.2
	c-0.5-0.5-1.3-0.8-2.2-0.8c-0.6,0-1.1,0.1-1.6,0.3c-0.4,0.2-0.7,0.5-1,0.8c-0.3,0.3-0.4,0.7-0.5,1c-0.1,0.3-0.2,0.7-0.2,0.9h6.4
	C28,16.4,27.6,15.7,27.2,15.2L27.2,15.2z"/>
<path class="st0" d="M20.9,8h8v1.9h-8C20.9,9.9,20.9,8,20.9,8z"/>
</svg>
