<?xml version="1.0" encoding="utf-8"?>
<!-- Generator: Adobe Illustrator 22.0.1, SVG Export Plug-In . SVG Version: 6.00 Build 0)  -->
<svg version="1.1" id="Слой_1" xmlns="http://www.w3.org/2000/svg" xmlns:xlink="http://www.w3.org/1999/xlink" x="0px" y="0px"
	 viewBox="0 0 32 32" style="enable-background:new 0 0 32 32;" xml:space="preserve">
<style type="text/css">
	.st0{fill:#FFFFFF;}
</style>
<title>google</title>
<path class="st0" d="M9.4,8.9c0,2.4,0.8,4.1,2.4,5.1c1.3,0.8,2.8,1,3.6,1c0.2,0,0.3,0,0.4,0c0,0-0.2,1.6,0.9,3.2h-0.1
	c-2.1,0-8.8,0.4-8.8,6c0,5.6,6.2,5.9,7.4,5.9c0.1,0,0.2,0,0.2,0c0,0,0.1,0,0.3,0c0.8,0,2.9-0.1,4.8-1c2.5-1.2,3.7-3.3,3.7-6.2
	c0-2.8-1.9-4.5-3.3-5.7c-0.9-0.8-1.6-1.4-1.6-2c0-0.6,0.5-1.1,1.2-1.7c1.1-1,2.1-2.4,2.1-5c0-2.3-0.3-3.9-2.2-4.9
	c0.2-0.1,0.9-0.2,1.2-0.2c1-0.1,2.5-0.3,2.5-1.1V1.9h-7.4C16.7,1.9,9.4,2.2,9.4,8.9L9.4,8.9z M21.2,23.4c0.1,2.3-1.8,3.9-4.7,4.1
	c-2.9,0.2-5.4-1.1-5.5-3.4c-0.1-1.1,0.4-2.1,1.3-3c0.9-0.9,2.2-1.4,3.6-1.5c0.2,0,0.3,0,0.5,0C19.3,19.6,21.1,21.2,21.2,23.4
	L21.2,23.4z M19.3,7.4c0.7,2.5-0.4,5.2-2.1,5.7c-0.2,0.1-0.4,0.1-0.6,0.1c-1.6,0-3.2-1.6-3.8-3.8C12.5,8.1,12.5,7,12.9,6
	c0.4-1,1-1.7,1.9-2c0.2-0.1,0.4-0.1,0.6-0.1C17.3,3.9,18.6,4.7,19.3,7.4z"/>
</svg>
